<?xml version="1.0" encoding="iso-8859-1"?>
<!-- Generator: Adobe Illustrator 18.0.0, SVG Export Plug-In . SVG Version: 6.00 Build 0)  -->
<!DOCTYPE svg PUBLIC "-//W3C//DTD SVG 1.1//EN" "http://www.w3.org/Graphics/SVG/1.1/DTD/svg11.dtd">
<svg version="1.1" id="Capa_1" xmlns="http://www.w3.org/2000/svg" xmlns:xlink="http://www.w3.org/1999/xlink" x="0px" y="0px"
	 viewBox="0 0 364.14 364.14" style="enable-background:new 0 0 364.14 364.14;" xml:space="preserve">
<g>
	<path d="M354.069,98.456c-2.163-6.716-6.812-12.185-13.086-15.399L184.652,2.917c-6.275-3.214-13.43-3.793-20.144-1.631
		c-6.716,2.164-12.185,6.812-15.4,13.087l-0.098,0.192l-13.475-4.539c-13.805-4.649-28.82,2.795-33.468,16.597l-1.41,4.196
		l-20.983-3.158c-6.978-1.048-13.944,0.679-19.62,4.867c-5.678,4.189-9.382,10.338-10.431,17.313l-0.047,0.314h-14.38
		c-14.563,0-26.411,11.848-26.411,26.411v261.163c0,14.563,11.848,26.411,26.411,26.411h175.667c10.811,0,20.125-6.53,24.207-15.853
		c0.315-0.721,117.37-229.687,117.37-229.687C355.654,112.325,356.233,105.17,354.069,98.456z M264.266,68.978
		c2.921,3.955,4.127,8.811,3.396,13.673l-30.39,201.905V76.566c0-7.049-2.781-13.456-7.297-18.197l22.218,3.343
		C257.057,62.444,261.344,65.024,264.266,68.978z M275.573,83.842c1.05-6.976-0.681-13.943-4.872-19.617
		c-0.076-0.103-0.157-0.2-0.234-0.302l28.985,9.765c4.66,1.569,8.429,4.859,10.613,9.264c2.184,4.405,2.522,9.397,0.952,14.059
		l-67.652,200.813L275.573,83.842z M166.961,8.9c4.682-1.508,9.668-1.104,14.042,1.136l87.092,44.646L156.721,17.163
		C159.005,13.231,162.596,10.307,166.961,8.9z M109.649,29.173c3.238-9.619,13.708-14.808,23.332-11.566l96.973,32.668
		L108.69,32.028L109.649,29.173z M64.803,38.966c3.957-2.919,8.816-4.125,13.679-3.393l96.908,14.583H57.709
		C58.606,45.659,61.088,41.707,64.803,38.966z M210.862,356.14H35.195c-10.152,0-18.411-8.259-18.411-18.411V76.566
		c0-10.152,8.259-18.411,18.411-18.411h175.667c10.152,0,18.411,8.259,18.411,18.411v261.163c0,1.5-0.194,2.954-0.537,4.349
		c-0.049,0.2-0.248,0.93-0.269,0.999C226.168,350.627,219.153,356.14,210.862,356.14z M345.319,114.952l-93.071,181.564
		l66.351-196.952c2.177-6.468,1.787-13.378-1.077-19.543l19.812,10.156c4.373,2.24,7.612,6.052,9.12,10.732
		C347.963,105.591,347.559,110.578,345.319,114.952z"/>
	<path d="M147.3,187.783c0.401-1.778,0.603-3.597,0.603-5.442c0-13.716-11.158-24.874-24.874-24.874s-24.874,11.158-24.874,24.874
		c0,1.845,0.202,3.664,0.603,5.442c-10.167,3.2-17.358,12.676-17.358,23.712c0,13.716,11.158,24.874,24.874,24.874
		c4.596,0,8.963-1.246,12.755-3.526v15.986h-8.242c-2.209,0-4,1.791-4,4s1.791,4,4,4h24.483c2.209,0,4-1.791,4-4s-1.791-4-4-4
		h-8.242v-15.986c3.792,2.281,8.159,3.526,12.755,3.526c13.716,0,24.874-11.158,24.874-24.874
		C164.658,200.459,157.465,190.983,147.3,187.783z M139.784,228.369c-5.378,0-10.314-2.495-13.542-6.846l-3.212-4.329l-3.212,4.329
		c-3.229,4.351-8.165,6.846-13.542,6.846c-9.304,0-16.874-7.57-16.874-16.874c0-8.602,6.44-15.807,14.98-16.759l5.418-0.604
		l-2.203-4.987c-0.957-2.165-1.441-4.455-1.441-6.804c0-9.304,7.57-16.874,16.874-16.874s16.874,7.57,16.874,16.874
		c0,2.35-0.485,4.639-1.441,6.803l-2.204,4.988l5.419,0.604c8.541,0.952,14.981,8.157,14.981,16.759
		C156.658,220.799,149.088,228.369,139.784,228.369z"/>
	<path d="M68.248,84.813c0.08-0.644,0.12-1.294,0.12-1.95c0-8.714-7.09-15.804-15.804-15.804S36.76,74.149,36.76,82.864
		c0,0.656,0.04,1.306,0.12,1.95c-5.691,2.422-9.595,8.056-9.595,14.537c0,8.714,7.089,15.804,15.804,15.804
		c1.887,0,3.738-0.356,5.475-1.004v4.574h-2.923c-2.209,0-4,1.791-4,4s1.791,4,4,4h13.845c2.209,0,4-1.791,4-4s-1.791-4-4-4h-2.922
		v-4.574c1.737,0.648,3.587,1.004,5.474,1.004c8.714,0,15.804-7.089,15.804-15.804C77.843,92.869,73.939,87.235,68.248,84.813z
		 M62.039,107.154c-2.485,0-4.768-1.155-6.262-3.169l-3.212-4.329l-3.212,4.329c-1.494,2.014-3.777,3.169-6.263,3.169
		c-4.303,0-7.804-3.5-7.804-7.804c0-3.978,2.978-7.31,6.926-7.75l5.418-0.604l-2.202-4.987c-0.442-1.002-0.667-2.061-0.667-3.146
		c0-4.303,3.5-7.804,7.804-7.804s7.804,3.501,7.804,7.804c0,1.085-0.225,2.143-0.667,3.146l-2.202,4.987l5.418,0.604
		c3.948,0.44,6.926,3.771,6.926,7.75C69.843,103.653,66.342,107.154,62.039,107.154z"/>
	<path d="M202.968,299.141c-1.888,0-3.737,0.356-5.475,1.004v-4.573h2.922c2.209,0,4-1.791,4-4s-1.791-4-4-4h-13.845
		c-2.209,0-4,1.791-4,4s1.791,4,4,4h2.923v4.573c-1.737-0.648-3.587-1.004-5.475-1.004c-8.714,0-15.804,7.089-15.804,15.804
		c0,6.48,3.903,12.115,9.595,14.537c-0.08,0.644-0.12,1.294-0.12,1.95c0,8.714,7.089,15.804,15.804,15.804
		c8.714,0,15.804-7.089,15.804-15.804c0-0.656-0.04-1.306-0.12-1.95c5.691-2.422,9.595-8.057,9.595-14.537
		C218.772,306.23,211.682,299.141,202.968,299.141z M203.846,322.695l-5.418,0.604l2.202,4.987c0.442,1.001,0.667,2.06,0.667,3.145
		c0,4.303-3.501,7.804-7.804,7.804c-4.304,0-7.805-3.501-7.805-7.804c0-1.085,0.225-2.144,0.667-3.145l2.203-4.987l-5.418-0.604
		c-3.949-0.44-6.926-3.772-6.926-7.75c0-4.303,3.501-7.804,7.804-7.804c2.485,0,4.768,1.155,6.263,3.169l3.213,4.328l3.212-4.329
		c1.493-2.014,3.776-3.168,6.262-3.168c4.303,0,7.804,3.5,7.804,7.804C210.772,318.923,207.794,322.255,203.846,322.695z"/>
</g>
<g>
</g>
<g>
</g>
<g>
</g>
<g>
</g>
<g>
</g>
<g>
</g>
<g>
</g>
<g>
</g>
<g>
</g>
<g>
</g>
<g>
</g>
<g>
</g>
<g>
</g>
<g>
</g>
<g>
</g>
</svg>
